<svg width="48" height="48" viewBox="0 0 48 48" fill="none" xmlns="http://www.w3.org/2000/svg">
<g id="Social">
<circle id="Ellipse 6" cx="23.5577" cy="23.5577" r="23.5577" fill="#EFEFEF"/>
<path id="Vector" d="M35.5769 19.1633V29.179C35.5769 30.1108 35.1812 31.0044 34.4768 31.6633C33.7724 32.3222 32.8171 32.6923 31.8209 32.6923H15.2945C14.2983 32.6923 13.343 32.3222 12.6386 31.6633C11.9342 31.0044 11.5385 30.1108 11.5385 29.179V19.1633L23.1761 25.5687C23.2917 25.6325 23.4235 25.6662 23.5577 25.6662C23.6919 25.6662 23.8237 25.6325 23.9393 25.5687L35.5769 19.1633ZM31.8209 14.4231C32.7451 14.423 33.6369 14.7416 34.3257 15.3179C35.0145 15.8943 35.452 16.688 35.5544 17.5471L23.5577 24.1479L11.561 17.5471C11.6634 16.688 12.1008 15.8943 12.7896 15.3179C13.4785 14.7416 14.3703 14.423 15.2945 14.4231H31.8209Z" fill="#18252E"/>
</g>
</svg>
