<svg width="48" height="48" viewBox="0 0 48 48" fill="none" xmlns="http://www.w3.org/2000/svg">
<g id="social 2">
<path id="Vector" d="M23.56 0C10.5431 0 0 10.8098 0 24.1559C0 34.8449 6.74405 43.8732 16.1091 47.0739C17.2871 47.2852 17.7289 46.5605 17.7289 45.9264C17.7289 45.3527 17.6994 43.4505 17.6994 41.4274C11.78 42.5446 10.2486 39.9479 9.7774 38.5891C9.51235 37.8946 8.3638 35.7508 7.3625 35.1771C6.5379 34.7241 5.3599 33.6069 7.33305 33.5767C9.1884 33.5465 10.5136 35.328 10.9554 36.0527C13.0758 39.7063 16.4626 38.6797 17.8172 38.0456C18.0234 36.4754 18.6418 35.4186 19.3192 34.8147C14.0771 34.2108 8.5994 32.1274 8.5994 22.8877C8.5994 20.2608 9.51235 18.0867 11.0143 16.3958C10.7787 15.7919 9.9541 13.316 11.2499 9.99451C11.2499 9.99451 13.2231 9.36042 17.7289 12.4705C19.6137 11.927 21.6163 11.6552 23.6189 11.6552C25.6215 11.6552 27.6241 11.927 29.5089 12.4705C34.0148 9.33022 35.9879 9.99451 35.9879 9.99451C37.2837 13.316 36.4591 15.7919 36.2235 16.3958C37.7254 18.0867 38.6384 20.2306 38.6384 22.8877C38.6384 32.1576 33.1312 34.2108 27.8892 34.8147C28.7432 35.5696 29.4795 37.019 29.4795 39.2836C29.4795 42.5144 29.45 45.1112 29.45 45.9264C29.45 46.5605 29.8918 47.3154 31.0697 47.0739C35.7471 45.4554 39.8115 42.3735 42.6908 38.2622C45.5701 34.151 47.1192 29.2173 47.12 24.1559C47.12 10.8098 36.5769 0 23.56 0Z" fill="#EFEFEF"/>
</g>
</svg>
