<svg width="48" height="48" viewBox="0 0 48 48" fill="none" xmlns="http://www.w3.org/2000/svg">
<circle cx="23.5577" cy="23.5577" r="23.5577" fill="#EFEFEF"/>
<g clip-path="url(#clip0_79_264)">
<path d="M17.7434 19.1644V34.37H12.7855V19.1644H17.7434ZM18.0589 14.4692C18.0689 15.216 17.816 15.8399 17.3002 16.3412C16.7844 16.8424 16.1058 17.093 15.2644 17.093H15.2344C14.4131 17.093 13.752 16.8424 13.2512 16.3412C12.7504 15.8399 12.5 15.216 12.5 14.4692C12.5 13.7123 12.7579 13.0857 13.2737 12.5896C13.7896 12.0935 14.4631 11.8455 15.2945 11.8455C16.1258 11.8455 16.7919 12.0935 17.2927 12.5896C17.7935 13.0857 18.0489 13.7123 18.0589 14.4692ZM35.5769 25.6548V34.37H30.634V26.2378C30.634 25.1638 30.4312 24.3224 30.0255 23.7138C29.6199 23.1052 28.9864 22.8009 28.125 22.8009C27.494 22.8009 26.9656 22.9773 26.54 23.3302C26.1143 23.6831 25.7963 24.1204 25.5859 24.6421C25.4758 24.949 25.4207 25.3633 25.4207 25.8849V34.37H20.4778C20.4978 30.2886 20.5078 26.9795 20.5078 24.4426C20.5078 21.9058 20.5028 20.3919 20.4928 19.9009L20.4778 19.1644H25.4207V21.3739H25.3906C25.5909 21.0466 25.7963 20.7601 26.0066 20.5146C26.2169 20.2691 26.4999 20.0032 26.8555 19.7168C27.211 19.4304 27.6467 19.2079 28.1626 19.0493C28.6784 18.8908 29.2518 18.8115 29.8828 18.8115C31.5956 18.8115 32.9728 19.392 34.0144 20.553C35.0561 21.714 35.5769 23.4146 35.5769 25.6548Z" fill="#18252E"/>
</g>
<defs>
<clipPath id="clip0_79_264">
<rect width="23.0769" height="23.0769" fill="white" transform="translate(12.5 11.5386)"/>
</clipPath>
</defs>
</svg>
